# xmcd CD database file
#
# Track frame offsets:
#	150
#	17454
#	33492
#	52986
#	67418
#	81259
#	97830
#	113426
#	128246
#	153803
#	179234
#	197231
#	214156
#	227341
#
# Disc length: 3183 seconds
#
# Revision: 0
# Processed by: cddbd v1.5PL3 Copyright (c) Steve Scherf et al.
# Submitted via: CDex 1.51
#
DISCID=b60c6d0e
DTITLE=Angela Strehli - The Queen of Texas Blues
DYEAR=1900
DGENRE=Blues
TTITLE0=Cut You Loose
TTITLE1=Stand By Your Woman Man
TTITLE2=Deja Blue
TTITLE3=Give Me Love
TTITLE4=Boogie Like You Wanna
TTITLE5=Two Bit Texas Town
TTITLE6=Say It's Just Not So
TTITLE7=A Fool In Love
TTITLE8=Hold On
TTITLE9=C.O.D.
TTITLE10=20% Alcohol
TTITLE11=Big Town Playboy
TTITLE12=It Hurts Me Too
TTITLE13=Where The Sun Don't Never Go Down
EXTD=
EXTT0=
EXTT1=
EXTT2=
EXTT3=
EXTT4=
EXTT5=
EXTT6=
EXTT7=
EXTT8=
EXTT9=
EXTT10=
EXTT11=
EXTT12=
EXTT13=
PLAYORDER=
